<?xml version="1.0" encoding="utf-8"?>
<!-- Generator: Adobe Illustrator 27.1.1, SVG Export Plug-In . SVG Version: 6.00 Build 0)  -->
<svg version="1.1" id="图层_1" xmlns="http://www.w3.org/2000/svg" xmlns:xlink="http://www.w3.org/1999/xlink" x="0px" y="0px"
	 viewBox="0 0 497.52 81.9" style="enable-background:new 0 0 497.52 81.9;" xml:space="preserve">
<style type="text/css">
	.st0{fill:#3861F6;}

		.st1{clip-path:url(#SVGID_00000157266399196178488040000018392931432007169666_);fill-rule:evenodd;clip-rule:evenodd;fill:#A42115;}

		.st2{clip-path:url(#SVGID_00000026132125694750779840000007761402950196300677_);fill-rule:evenodd;clip-rule:evenodd;fill:#A42115;}
</style>
<g>
	<path class="st0" d="M5.57,6.86H36.5v6.95H13.38v16.64h22.34v6.99H13.38v16.95h23.86v6.95H5.57V6.86z"/>
	<path class="st0" d="M67.16,39.82v15.27c0,1.22,0.42,1.83,1.25,1.83c0.86,0,2.2-0.64,4.02-1.91v4.33
		c-1.61,1.04-2.91,1.75-3.89,2.13c-0.98,0.38-2,0.57-3.07,0.57c-3.05,0-4.84-1.2-5.39-3.59c-3.02,2.34-6.24,3.51-9.65,3.51
		c-2.5,0-4.58-0.83-6.25-2.48c-1.67-1.65-2.5-3.73-2.5-6.23c0-2.26,0.81-4.29,2.44-6.07c1.63-1.78,3.94-3.2,6.93-4.24l9.1-3.12
		v-1.91c0-4.32-2.16-6.48-6.48-6.48c-3.88,0-7.65,2.01-11.33,6.01v-7.77c2.76-3.25,6.73-4.88,11.91-4.88c3.88,0,6.99,1.02,9.33,3.05
		c0.78,0.65,1.48,1.52,2.11,2.6c0.62,1.08,1.02,2.16,1.19,3.24C67.07,34.75,67.16,36.8,67.16,39.82z M60.17,54.31V43.65l-4.76,1.83
		c-2.42,0.96-4.13,1.93-5.14,2.91c-1,0.98-1.5,2.19-1.5,3.65c0,1.48,0.48,2.7,1.43,3.63c0.95,0.94,2.18,1.41,3.69,1.41
		C56.14,57.08,58.24,56.16,60.17,54.31z"/>
	<path class="st0" d="M76.96,58.84v-7.65c2,1.41,4.05,2.54,6.15,3.42c2.1,0.87,3.86,1.31,5.29,1.31c1.48,0,2.76-0.36,3.83-1.09
		s1.6-1.6,1.6-2.62c0-1.04-0.35-1.91-1.04-2.6c-0.69-0.69-2.18-1.69-4.47-2.99c-4.58-2.55-7.58-4.73-9-6.54
		c-1.42-1.81-2.13-3.78-2.13-5.92c0-2.76,1.07-5.01,3.22-6.76c2.15-1.74,4.91-2.62,8.3-2.62c3.51,0,7.12,0.99,10.82,2.97v7.03
		c-4.22-2.55-7.67-3.83-10.35-3.83c-1.38,0-2.49,0.29-3.34,0.88c-0.85,0.59-1.27,1.36-1.27,2.33c0,0.83,0.38,1.63,1.15,2.38
		c0.77,0.76,2.11,1.67,4.04,2.73l2.54,1.44c5.99,3.38,8.99,7.13,8.99,11.24c0,2.94-1.15,5.36-3.46,7.24
		c-2.3,1.89-5.27,2.83-8.88,2.83c-2.13,0-4.04-0.23-5.7-0.68C81.58,60.9,79.48,60.06,76.96,58.84z"/>
	<path class="st0" d="M131.55,25.49h7.97l-25.46,54.24h-7.93l12.2-26.03l-13.88-28.21h8.1l9.7,20.29L131.55,25.49z"/>
</g>
<g>
	<path class="st0" d="M296.13,48.76v8.59c-5.73,3.12-12.34,4.69-19.84,4.69c-6.09,0-11.26-1.22-15.51-3.67
		c-4.24-2.45-7.6-5.82-10.07-10.12c-2.47-4.3-3.71-8.94-3.71-13.94c0-7.94,2.83-14.62,8.49-20.03c5.66-5.42,12.65-8.12,20.95-8.12
		c5.73,0,12.09,1.5,19.1,4.49v8.4c-6.38-3.65-12.61-5.47-18.71-5.47c-6.25,0-11.44,1.97-15.56,5.92c-4.12,3.94-6.19,8.88-6.19,14.82
		c0,5.99,2.03,10.91,6.09,14.76c4.06,3.85,9.26,5.78,15.58,5.78C283.37,54.85,289.83,52.82,296.13,48.76z"/>
	<path class="st0" d="M304.92,6.86h7.11v54.56h-7.11V6.86z"/>
	<path class="st0" d="M325.96,10.37c1.17,0,2.17,0.4,3.01,1.21c0.83,0.81,1.25,1.8,1.25,2.97c0,1.15-0.42,2.14-1.25,2.97
		c-0.83,0.83-1.84,1.25-3.01,1.25c-1.09,0-2.06-0.42-2.89-1.27c-0.83-0.85-1.25-1.83-1.25-2.95c0-1.09,0.42-2.06,1.25-2.91
		C323.91,10.8,324.87,10.37,325.96,10.37z M322.45,25.49h7.11v35.93h-7.11V25.49z"/>
	<path class="st0" d="M369.27,35.33v26.09h-7.15v-20c0-3.98-0.53-6.76-1.6-8.34c-1.07-1.58-2.93-2.36-5.58-2.36
		c-1.48,0-2.84,0.34-4.08,1.02c-1.24,0.68-2.65,1.87-4.24,3.59v26.09h-7.11V25.49h7.11v4.73c3.62-3.62,7.16-5.43,10.62-5.43
		c4.56,0,8.08,2.16,10.58,6.48c3.8-4.37,7.77-6.56,11.91-6.56c3.49,0,6.36,1.28,8.61,3.83c2.25,2.55,3.38,6.44,3.38,11.68v21.21
		h-7.11V40.13c0-2.99-0.61-5.28-1.83-6.87c-1.22-1.59-2.98-2.38-5.27-2.38C374.57,30.88,371.83,32.36,369.27,35.33z"/>
	<path class="st0" d="M424.07,39.82v15.27c0,1.22,0.42,1.83,1.25,1.83c0.86,0,2.2-0.64,4.02-1.91v4.33
		c-1.62,1.04-2.91,1.75-3.89,2.13c-0.98,0.38-2,0.57-3.07,0.57c-3.05,0-4.84-1.2-5.39-3.59c-3.02,2.34-6.24,3.51-9.65,3.51
		c-2.5,0-4.58-0.83-6.25-2.48c-1.67-1.65-2.5-3.73-2.5-6.23c0-2.26,0.81-4.29,2.44-6.07c1.63-1.78,3.94-3.2,6.93-4.24l9.1-3.12
		v-1.91c0-4.32-2.16-6.48-6.48-6.48c-3.88,0-7.65,2.01-11.33,6.01v-7.77c2.76-3.25,6.73-4.88,11.91-4.88c3.88,0,6.99,1.02,9.33,3.05
		c0.78,0.65,1.48,1.52,2.11,2.6c0.62,1.08,1.02,2.16,1.19,3.24C423.98,34.75,424.07,36.8,424.07,39.82z M417.08,54.31V43.65
		l-4.76,1.83c-2.42,0.96-4.13,1.93-5.14,2.91c-1,0.98-1.5,2.19-1.5,3.65c0,1.48,0.47,2.7,1.42,3.63c0.95,0.94,2.18,1.41,3.69,1.41
		C413.05,57.08,415.15,56.16,417.08,54.31z"/>
	<path class="st0" d="M430.59,31.19l13.36-13.12v7.42h11.36v6.4h-11.36v17.58c0,4.11,1.7,6.16,5.12,6.16c2.55,0,5.25-0.85,8.08-2.54
		v6.64c-2.73,1.54-5.71,2.3-8.94,2.3c-3.25,0-5.96-0.95-8.12-2.85c-0.68-0.57-1.24-1.22-1.68-1.93c-0.44-0.72-0.81-1.65-1.11-2.81
		c-0.3-1.16-0.45-3.37-0.45-6.62V31.89h-6.25V31.19z"/>
	<path class="st0" d="M492.88,44.08h-25.27c0.18,3.44,1.33,6.17,3.46,8.2c2.12,2.03,4.86,3.05,8.22,3.05
		c4.69,0,9.01-1.46,12.97-4.37v6.95c-2.19,1.46-4.35,2.5-6.5,3.12c-2.15,0.62-4.67,0.94-7.56,0.94c-3.96,0-7.16-0.82-9.61-2.46
		c-2.45-1.64-4.41-3.85-5.88-6.62c-1.47-2.77-2.21-5.98-2.21-9.63c0-5.47,1.55-9.91,4.65-13.34c3.1-3.42,7.12-5.14,12.07-5.14
		c4.76,0,8.57,1.67,11.4,5c2.84,3.33,4.26,7.8,4.26,13.4V44.08z M467.77,39.82h18.08c-0.18-2.84-1.03-5.02-2.54-6.56
		c-1.51-1.54-3.54-2.3-6.09-2.3c-2.55,0-4.64,0.77-6.27,2.3C469.32,34.8,468.26,36.98,467.77,39.82z"/>
</g>
<g>
	<defs>
		<rect id="SVGID_1_" x="-34.62" y="-37.88" width="566.88" height="141.78"/>
	</defs>
	<clipPath id="SVGID_00000010283606342015683100000015316965363196618906_">
		<use xlink:href="#SVGID_1_"  style="overflow:visible;"/>
	</clipPath>

		<path style="clip-path:url(#SVGID_00000010283606342015683100000015316965363196618906_);fill-rule:evenodd;clip-rule:evenodd;fill:#A42115;" d="
		M216.48,35.09c-0.6-3.67-2.62-6.96-5.63-9.15c-3.12-2.19-7-3-10.73-2.25c-2.95-4.52-7.97-7.25-13.36-7.27
		c-1.24,0-2.47,0.14-3.67,0.43c-6.39,1.66-11.18,6.98-12.16,13.51c-4.23,0.15-8.17,2.18-10.73,5.55c-2.99,4.21-3.53,9.69-1.43,14.4
		c2.15,4.64,6.68,7.72,11.78,8.03h4.22l-1.5-1.5h-2.68c-4.53-0.29-8.54-3.02-10.46-7.13c-1.88-4.22-1.4-9.12,1.26-12.9
		c2.3-2.99,5.81-4.8,9.58-4.94l1.25-0.04l0.18-1.23c0.88-5.93,5.22-10.77,11.03-12.27c1.09-0.26,2.2-0.4,3.32-0.4
		c4.89,0,9.45,2.48,12.11,6.58l0.56,0.85l1-0.2c3.32-0.67,6.78,0.06,9.56,1.99c2.68,1.96,4.49,4.9,5.03,8.18l0.18,1.08l1.08,0.16
		c5.6,0.79,9.49,5.97,8.7,11.56c-0.7,4.93-4.85,8.64-9.82,8.79h-4.44l-1.5,1.5h5.94c6.48-0.17,11.59-5.56,11.42-12.03
		C226.41,40.68,222.15,35.9,216.48,35.09"/>
</g>
<g>
	<defs>
		<rect id="SVGID_00000145044278989956313000000009589999494970910863_" x="-34.62" y="-37.88" width="566.88" height="141.78"/>
	</defs>
	<clipPath id="SVGID_00000037651413934217173200000014864696316630443401_">
		<use xlink:href="#SVGID_00000145044278989956313000000009589999494970910863_"  style="overflow:visible;"/>
	</clipPath>

		<path style="clip-path:url(#SVGID_00000037651413934217173200000014864696316630443401_);fill-rule:evenodd;clip-rule:evenodd;fill:#A42115;" d="
		M191.28,36.64v29.69c0,0,0,0.01-0.01,0.01c0,0,0,0,0,0l-9.97-9.96l-1.06,1.06l11.79,11.79l11.79-11.79l-1.06-1.06l-9.96,9.96
		c0,0-0.01,0-0.01,0c0,0,0,0,0-0.01V36.64H191.28z"/>
</g>
</svg>
